<svg id="abbvie_logo" data-name="abbvie logo" xmlns="http://www.w3.org/2000/svg" width="145.385" height="26" viewBox="0 0 145.385 26">
  <path id="logo" d="M160.858,47.609c0-1.58-.888-2.13-2.37-2.13H147.355c-5.225,0-7.068-3.325-7.308-5.612H155.5c4.507,0,5.837-3.334,5.837-5.481,0-2.291-1.444-5.481-5.837-5.481h-8.346c-7.6,0-10.1,5.316-10.1,9.625,0,4.735,2.846,9.625,10.078,9.625h13.724ZM147.376,31.581h7.746c2.671,0,3.316,1.708,3.316,2.805,0,.983-.586,2.805-3.316,2.805H140.048c.184-1.909,1.74-5.61,7.328-5.61M115.863,46.94c-.794,1.116-1.343,1.506-2.042,1.506-.968,0-1.339-.537-2.033-1.506C110.11,44.59,98.934,28.9,98.934,28.9h1.727a3.209,3.209,0,0,1,3.177,1.789c.339.485,10.058,14.555,10.058,14.555S123.6,31.2,124,30.619a3.153,3.153,0,0,1,3.142-1.714h1.519s-11.435,16.119-12.8,18.035M42.571,48.155a2,2,0,0,1-2.136-1.88l-.382-2.089c-.631,1.2-2.982,3.969-8.063,3.969H26.15c-7.95,0-10.195-5.535-10.195-9.625,0-4.608,2.7-9.625,10.195-9.625h5.841c5.687,0,8.853,3.4,9.614,7.55.635,3.461,2.128,11.7,2.128,11.7ZM31.346,31.581H26.356c-5.609,0-7.52,3.665-7.52,6.949,0,3.319,1.909,6.949,7.52,6.949h4.991c5.86,0,7.566-3.817,7.566-6.949,0-2.792-1.523-6.949-7.566-6.949M132.408,26.7a1.405,1.405,0,0,0,1.476-1.53v-.637a1.476,1.476,0,1,0-2.95,0v.637a1.4,1.4,0,0,0,1.474,1.53m-1.439,2.2h.684c1.338,0,2.2.618,2.2,2.484V48.155h-.719c-1.461,0-2.16-.816-2.16-2.432Zm-82.842,2.5a9.612,9.612,0,0,1,6.922-2.5H60.89c7.95,0,10.195,5.535,10.195,9.625,0,4.608-2.7,9.625-10.195,9.625H55.049c-5.687,0-9.8-3.777-9.8-9.624V22.446h.892a1.758,1.758,0,0,1,1.988,1.9Zm7.566,14.074h4.992c5.609,0,7.518-3.665,7.518-6.949,0-3.321-1.909-6.949-7.518-6.949H55.694c-5.86,0-7.566,3.817-7.566,6.949,0,2.792,1.525,6.949,7.566,6.949M76.881,31.406A9.612,9.612,0,0,1,83.8,28.9h5.841c7.95,0,10.195,5.535,10.195,9.625,0,4.608-2.7,9.625-10.195,9.625H83.8c-5.687,0-9.8-3.777-9.8-9.624V22.446h.892a1.758,1.758,0,0,1,1.988,1.9Zm7.566,14.074h4.99c5.611,0,7.52-3.665,7.52-6.949,0-3.321-1.909-6.949-7.52-6.949h-4.99c-5.86,0-7.566,3.817-7.566,6.949,0,2.792,1.523,6.949,7.566,6.949" transform="translate(-15.955 -22.446)" fill="#060038"/>
</svg>
