<svg width="50" height="50" viewBox="0 0 50 50" fill="none" xmlns="http://www.w3.org/2000/svg">
<g clip-path="url(#clip0_10806_1515)">
<path d="M50 0H0V50H50V0Z" fill="#00B894"/>
<path d="M16.3945 34V16.8203H18.668V34H16.3945ZM22.5938 34V16.8203H29.0391C30.3516 16.8203 31.4023 16.9961 32.1914 17.3477C32.9883 17.6914 33.6094 18.2266 34.0547 18.9531C34.5078 19.6719 34.7344 20.4258 34.7344 21.2148C34.7344 21.9492 34.5352 22.6406 34.1367 23.2891C33.7383 23.9375 33.1367 24.4609 32.332 24.8594C33.3711 25.1641 34.168 25.6836 34.7227 26.418C35.2852 27.1523 35.5664 28.0195 35.5664 29.0195C35.5664 29.8242 35.3945 30.5742 35.0508 31.2695C34.7148 31.957 34.2969 32.4883 33.7969 32.8633C33.2969 33.2383 32.668 33.5234 31.9102 33.7188C31.1602 33.9062 30.2383 34 29.1445 34H22.5938ZM24.8672 24.0391H28.582C29.5898 24.0391 30.3125 23.9727 30.75 23.8398C31.3281 23.668 31.7617 23.3828 32.0508 22.9844C32.3477 22.5859 32.4961 22.0859 32.4961 21.4844C32.4961 20.9141 32.3594 20.4141 32.0859 19.9844C31.8125 19.5469 31.4219 19.25 30.9141 19.0938C30.4062 18.9297 29.5352 18.8477 28.3008 18.8477H24.8672V24.0391ZM24.8672 31.9727H29.1445C29.8789 31.9727 30.3945 31.9453 30.6914 31.8906C31.2148 31.7969 31.6523 31.6406 32.0039 31.4219C32.3555 31.2031 32.6445 30.8867 32.8711 30.4727C33.0977 30.0508 33.2109 29.5664 33.2109 29.0195C33.2109 28.3789 33.0469 27.8242 32.7188 27.3555C32.3906 26.8789 31.9336 26.5469 31.3477 26.3594C30.7695 26.1641 29.9336 26.0664 28.8398 26.0664H24.8672V31.9727Z" fill="white"/>
</g>
<defs>
<clipPath id="clip0_10806_1515">
<rect width="50" height="50" fill="white"/>
</clipPath>
</defs>
</svg>
